<svg xmlns="http://www.w3.org/2000/svg" viewBox="0 0 640 800" role="img" aria-labelledby="title description">
  <title id="title">ALKEBULAN product image placeholder</title>
  <desc id="description">A neutral placeholder used when a product image is unavailable.</desc>
  <rect width="640" height="800" fill="#f2efe9"/>
  <rect x="32" y="32" width="576" height="736" rx="20" fill="none" stroke="#d4cec4" stroke-width="2"/>
  <g fill="#141412">
    <path d="M320 262c-54 0-98 44-98 98s44 98 98 98 98-44 98-98-44-98-98-98Zm0 30c37.6 0 68 30.4 68 68s-30.4 68-68 68-68-30.4-68-68 30.4-68 68-68Z"/>
    <path d="m320 304 46 80h-92l46-80Zm-102 172h204v18H218v-18Z"/>
  </g>
  <text x="320" y="548" text-anchor="middle" fill="#141412" font-family="Arial, Helvetica, sans-serif" font-size="28" font-weight="700" letter-spacing="8">ALKEBULAN</text>
  <text x="320" y="594" text-anchor="middle" fill="#756f66" font-family="Arial, Helvetica, sans-serif" font-size="18" letter-spacing="2">IMAGE UNAVAILABLE</text>
</svg>
